<?xml version="1.0" standalone="no"?>
<!DOCTYPE svg PUBLIC "-//W3C//DTD SVG 20010904//EN"
 "http://www.w3.org/TR/2001/REC-SVG-20010904/DTD/svg10.dtd">
<svg version="1.0" xmlns="http://www.w3.org/2000/svg"
 width="700.000000pt" height="700.000000pt" viewBox="0 0 700.000000 700.000000"
 preserveAspectRatio="xMidYMid meet">
<metadata>
Created by potrace 1.14, written by Peter Selinger 2001-2017
</metadata>
<g transform="translate(0.000000,700.000000) scale(0.100000,-0.100000)"
fill="#000000" stroke="none">
<path d="M2270 6668 c-402 -30 -838 -192 -1205 -445 -133 -92 -204 -150 -286
-238 -215 -229 -211 -419 13 -527 94 -45 252 -93 378 -113 25 -4 52 -9 60 -10
8 -1 35 -6 60 -10 25 -4 54 -9 65 -11 20 -4 55 -8 165 -20 30 -3 66 -7 80 -9
14 -2 61 -7 105 -10 44 -4 94 -8 110 -10 17 -2 80 -6 140 -10 61 -4 135 -8
165 -10 50 -3 111 -7 365 -20 44 -3 116 -7 160 -11 44 -4 85 -7 92 -7 7 0 10
-3 8 -6 -1 -3 -29 -7 -62 -9 -32 -2 -67 -5 -78 -7 -11 -2 -216 -4 -455 -5
-368 -2 -427 -4 -385 -15 62 -15 95 -32 95 -49 0 -15 -29 -42 -85 -80 l-40
-27 65 6 c36 3 99 10 140 15 41 5 102 12 135 15 33 3 80 8 105 11 25 2 65 6
90 9 35 3 -100 -37 -201 -60 -31 -7 -175 -58 -219 -78 -77 -35 -178 -106 -199
-141 -26 -41 -27 -97 -3 -118 60 -53 150 -72 442 -93 110 -9 258 -33 310 -52
180 -65 177 -177 -9 -411 -101 -127 -186 -216 -564 -591 -514 -510 -550 -547
-731 -756 -150 -172 -346 -434 -346 -461 0 -4 -7 -15 -15 -23 -8 -9 -41 -70
-73 -136 -175 -353 -189 -635 -46 -918 91 -180 270 -363 509 -522 101 -67 352
-198 435 -228 25 -9 90 -32 145 -52 186 -66 423 -122 635 -150 25 -3 61 -8 80
-10 162 -22 680 -22 798 -1 9 2 51 7 92 11 41 4 84 9 95 11 10 2 37 6 60 9 65
9 154 25 250 45 28 6 59 12 70 14 437 86 1061 332 1420 560 136 87 184 120
284 193 392 291 797 707 1092 1123 127 179 133 196 43 112 -512 -471 -1039
-761 -1699 -937 -93 -24 -320 -72 -390 -81 -22 -3 -51 -7 -65 -10 -14 -2 -52
-6 -85 -9 -33 -3 -69 -8 -80 -10 -129 -26 -736 -26 -945 0 -14 2 -47 6 -75 10
-27 3 -59 8 -71 10 -12 3 -39 7 -60 11 -127 19 -334 82 -412 125 -196 108
-252 226 -196 419 44 153 155 333 474 775 571 789 934 1429 1124 1985 45 129
98 334 110 421 4 25 9 59 12 75 10 51 11 239 2 315 -23 194 -119 420 -240 565
-40 48 -168 173 -206 201 -20 16 -39 30 -42 33 -15 15 -108 76 -181 118 -406
232 -883 344 -1329 310z"/>
</g>
</svg>
