<?xml version="1.0" encoding="UTF-8" standalone="no"?>
<!-- Created with Inkscape (http://www.inkscape.org/) -->

<svg
   width="210mm"
   height="297mm"
   viewBox="0 0 210 297"
   version="1.1"
   id="svg5"
   xmlns="http://www.w3.org/2000/svg"
   xmlns:svg="http://www.w3.org/2000/svg">
  <defs
     id="defs2" />
  <g
     id="layer1">
    <path
       style="fill:#d35f5f;stroke:#000000;stroke-width:0.264583px;stroke-linecap:butt;stroke-linejoin:miter;stroke-opacity:1"
       d="m 74.297724,114.94455 c 1.0563,-0.22907 4.225019,-0.91568 6.337566,-1.37346 2.112547,-0.45778 3.69662,-0.80108 5.280925,-1.14443 0,0 0.285305,2.22085 0.285305,2.22085 -1.684594,0.22431 -3.368927,0.44859 -5.580117,0.74296 -2.211191,0.29437 -5.369953,0.71482 -7.019449,1.02061 -1.649496,0.30578 -4.878311,1.08055 -6.815336,1.54531 -1.937026,0.46477 -3.390279,0.81342 -4.843191,1.16199 0.886285,-0.71586 1.772635,-1.43177 1.646412,-1.82937 -0.126223,-0.39761 -1.265463,-0.47707 -2.404415,-0.5565 1.507011,-0.19494 3.014284,-0.38992 5.023508,-0.64972 2.009224,-0.2598 5.023237,-0.64941 6.027866,-0.77928 1.004629,-0.12987 1.004626,-0.1299 2.060926,-0.35896 z"
       id="path200" />
    <path
       style="fill:#00ff00;stroke:#000000;stroke-width:0.264583px;stroke-linecap:butt;stroke-linejoin:miter;stroke-opacity:1"
       d="m 82.677746,112.82294 c -3.996311,0.53995 -22.835153,4.46078 -28.202814,1.92861 -5.367662,-2.53217 2.736355,-11.51704 10.856235,-15.787266 8.11988,-4.270227 16.254379,-3.825315 23.755523,-0.891131 7.501144,2.934187 14.36804,8.357077 14.2,17.616767 -0.16804,9.25969 -7.370632,22.35522 -11.962205,33.11194 -4.591573,10.75673 -6.571624,19.17345 -1.957338,23.80825 4.614287,4.6348 15.821953,5.48765 24.555663,3.7855 8.73371,-1.70216 14.99263,-5.95905 19.58721,-9.97228 4.59457,-4.01323 7.52434,-7.7824 6.35496,-4.58761 -1.16938,3.19478 -6.43773,13.35306 -15.85985,20.40276 -9.42211,7.04971 -22.99736,10.99024 -34.178224,10.03626 -11.180863,-0.95399 -19.966688,-6.80246 -24.729961,-14.27955 -4.763273,-7.47708 -5.503154,-16.58198 -1.014017,-25.80797 4.489137,-9.226 14.206765,-18.57169 14.648779,-22.9985 0.442014,-4.42681 -8.391869,-3.93419 -12.229974,-4.98484 -3.838105,-1.05064 -2.679637,-3.64455 3.323156,-6.36223 6.002793,-2.71767 16.849168,-5.55865 12.852857,-5.01871 z"
       id="path61" />
    <path
       style="fill:#000000;stroke:#000000;stroke-width:0.432262px;stroke-linecap:butt;stroke-linejoin:miter;stroke-opacity:1"
       d="m 63.518731,107.36614 c -1.505764,-0.21776 -3.192126,0.60007 -3.139974,0.27397 0.05215,-0.3261 1.843004,-1.79617 3.348694,-1.57841 1.505689,0.21776 2.726051,2.12311 2.67388,2.44915 -0.05217,0.32605 -1.376837,-0.92695 -2.8826,-1.14471 z"
       id="path363" />
    <path
       style="fill:#000000;stroke:#000000;stroke-width:0.416224px;stroke-linecap:butt;stroke-linejoin:miter;stroke-opacity:1"
       d="m 86.221524,109.63245 c -1.556668,-0.35529 -3.931726,0.25414 -3.901063,-0.14805 0.03066,-0.40219 2.467037,-1.81579 4.023795,-1.46048 1.556758,0.35531 2.233183,2.47912 2.202508,2.88127 -0.03068,0.40215 -0.768572,-0.91745 -2.32524,-1.27274 z"
       id="path363-0" />
  </g>
</svg>
