<?xml version="1.0" encoding="UTF-8" standalone="no"?>
<!-- Created with Inkscape (http://www.inkscape.org/) -->

<svg
   width="210mm"
   height="297mm"
   viewBox="0 0 210 297"
   version="1.1"
   id="svg5"
   xmlns="http://www.w3.org/2000/svg"
   xmlns:svg="http://www.w3.org/2000/svg">
  <defs
     id="defs2" />
  <g
     id="layer1">
    <path
       style="fill:#d35f5f;stroke:#000000;stroke-width:0.264583px;stroke-linecap:butt;stroke-linejoin:miter;stroke-opacity:1"
       d="m 94.042046,123.47928 c 1.076877,-0.0926 4.307255,-0.36986 6.460914,-0.55473 2.15366,-0.18487 3.76856,-0.32353 5.3837,-0.46221 0,0 0,2.2391 0,2.2391 -1.69944,0.008 -3.39862,0.0157 -5.6293,0.0259 -2.230673,0.0102 -5.417264,0.0248 -7.092277,0.11788 -1.675014,0.0931 -4.97623,0.45016 -6.956687,0.66432 -1.980457,0.21416 -3.466291,0.3748 -4.951774,0.5354 0.970275,-0.59709 1.940622,-1.19423 1.86609,-1.60468 -0.07453,-0.41045 -1.194361,-0.63442 -2.313908,-0.85833 1.519567,-0.001 3.039397,-0.003 5.065347,-0.004 2.02595,-0.002 5.065041,-0.004 6.078029,-0.005 1.012988,-8e-4 1.012988,-8.2e-4 2.089866,-0.0934 z"
       id="path200" />
    <path
       style="fill:#00ff00;stroke:#000000;stroke-width:0.264583px;stroke-linecap:butt;stroke-linejoin:miter;stroke-opacity:1"
       d="m 96.076709,122.88584 c -4.604721,-0.50788 -23.443565,-0.50788 -28.405618,-4.15555 -4.962052,-3.64767 3.953152,-10.94255 12.478632,-14.36772 8.52548,-3.42517 16.659981,-2.98025 24.161127,-0.0461 7.50114,2.93418 14.36803,8.35707 14.19999,17.61677 -0.16803,9.25969 -7.37063,22.35522 -14.98995,32.13664 -7.619327,9.78142 -15.654568,16.2477 -13.019323,19.93043 2.635245,3.68272 15.940393,4.58142 26.416263,2.94879 10.47588,-1.63263 18.1214,-5.79634 23.40929,-9.76296 5.28789,-3.96663 8.21765,-7.73579 6.35494,-4.58763 -1.8627,3.14817 -8.51765,13.21326 -19.19152,20.12807 -10.67387,6.91482 -25.36593,10.67873 -38.247955,9.56201 -12.882024,-1.11671 -23.953192,-7.11399 -26.831452,-13.69039 -2.87826,-6.57641 2.437081,-13.73103 10.606411,-21.84193 8.169331,-8.1109 19.191608,-17.17703 20.488774,-21.26123 1.297166,-4.0842 -7.131123,-3.18598 -10.76641,-4.03381 -3.635287,-0.84783 -2.476815,-3.44175 2.917573,-5.24677 5.394388,-1.80501 15.023949,-2.82077 10.419228,-3.32865 z"
       id="path61" />
    <path
       style="fill:#000000;stroke:#000000;stroke-width:0.346573px;stroke-linecap:butt;stroke-linejoin:miter;stroke-opacity:1"
       d="m 76.361336,117.55271 c -1.149256,-0.78311 -1.105895,-2.39441 0.06508,-3.11073 1.170976,-0.71632 3.469059,-0.53729 4.61798,0.24617 1.148921,0.78346 1.148921,2.17094 -0.0217,2.88692 -1.170622,0.71598 -3.512102,0.76074 -4.661359,-0.0224 z"
       id="path363" />
    <path
       style="fill:#000000;stroke:#000000;stroke-width:0.346573px;stroke-linecap:butt;stroke-linejoin:miter;stroke-opacity:1"
       d="m 100.19471,118.84343 c -1.149254,-0.78311 -1.105893,-2.39441 0.0651,-3.11073 1.17098,-0.71632 3.46907,-0.53729 4.61799,0.24617 1.14892,0.78346 1.14891,2.17094 -0.0217,2.88692 -1.17062,0.71598 -3.51211,0.76074 -4.66136,-0.0224 z"
       id="path363-0" />
  </g>
</svg>
