<?xml version="1.0" encoding="UTF-8" standalone="no"?>
<!-- Created with Inkscape (http://www.inkscape.org/) -->

<svg
   width="210mm"
   height="297mm"
   viewBox="0 0 210 297"
   version="1.1"
   id="svg5"
   xmlns="http://www.w3.org/2000/svg"
   xmlns:svg="http://www.w3.org/2000/svg">
  <defs
     id="defs2" />
  <g
     id="layer1">
    <path
       style="fill:#d35f5f;stroke:#000000;stroke-width:0.264583px;stroke-linecap:butt;stroke-linejoin:miter;stroke-opacity:1"
       d="m 91.500915,121.32843 c 1.076877,-0.0926 4.307255,-0.36986 6.460913,-0.55473 2.153662,-0.18487 3.768562,-0.32353 5.383702,-0.46221 0,0 0,2.2391 0,2.2391 -1.69944,0.008 -3.398626,0.0157 -5.629301,0.0259 -2.230674,0.0102 -5.417264,0.0248 -7.092277,0.11788 -1.675014,0.0931 -4.97623,0.45016 -6.956687,0.66432 -1.980457,0.21416 -3.466291,0.3748 -4.951774,0.5354 0.970275,-0.59709 1.940622,-1.19423 1.86609,-1.60468 -0.07453,-0.41045 -1.194361,-0.63442 -2.313908,-0.85833 1.519567,-0.001 3.039397,-0.003 5.065347,-0.004 2.02595,-0.002 5.065041,-0.004 6.078029,-0.005 1.012988,-8e-4 1.012988,-8.2e-4 2.089866,-0.0934 z"
       id="path200" />
    <path
       style="fill:#00ff00;stroke:#000000;stroke-width:0.264583px;stroke-linecap:butt;stroke-linejoin:miter;stroke-opacity:1"
       d="m 92.31525,121.11574 c -4.604722,-0.50788 -23.443944,-0.50788 -28.405809,-4.15555 -4.961864,-3.64767 3.953513,-10.94269 12.478907,-14.36779 8.525394,-3.425096 16.660048,-2.980175 24.161112,-0.046 7.50107,2.93418 14.3681,8.35718 14.19999,17.61682 -0.1681,9.25964 -7.37084,22.35543 -13.87281,32.36638 -6.501983,10.01096 -12.302856,16.93662 -8.713681,21.01236 3.589175,4.07573 16.567681,5.30136 27.304971,3.83217 10.73728,-1.46919 19.23292,-5.63297 24.94572,-9.59956 5.71279,-3.96658 8.64261,-7.73582 6.35488,-4.58763 -2.28773,3.1482 -9.79277,13.21349 -21.21849,20.03014 -11.42571,6.81665 -26.77159,10.38441 -39.490155,9.10424 -12.718563,-1.28016 -22.80923,-7.40832 -26.314319,-14.27965 -3.50509,-6.87133 -0.424162,-14.48536 6.627843,-22.82586 7.052004,-8.34051 18.074501,-17.40682 19.371557,-21.49093 1.297056,-4.08411 -7.131418,-3.18587 -10.766613,-4.03371 -3.635194,-0.84784 -2.4767,-3.44181 2.917677,-5.2468 5.394377,-1.80499 15.023941,-2.82075 10.41922,-3.32863 z"
       id="path61" />
    <path
       style="fill:#000000;stroke:#000000;stroke-width:0.346573px;stroke-linecap:butt;stroke-linejoin:miter;stroke-opacity:1"
       d="m 69.663904,114.9246 c -1.149256,-0.78311 -1.105895,-2.39441 0.06508,-3.11073 1.170976,-0.71632 3.469059,-0.53729 4.61798,0.24617 1.148921,0.78346 1.148921,2.17094 -0.0217,2.88692 -1.170622,0.71598 -3.512102,0.76074 -4.661359,-0.0224 z"
       id="path363" />
    <path
       style="fill:#000000;stroke:#000000;stroke-width:0.346573px;stroke-linecap:butt;stroke-linejoin:miter;stroke-opacity:1"
       d="m 93.49728,116.21532 c -1.149256,-0.78311 -1.105895,-2.39441 0.06508,-3.11073 1.170976,-0.71632 3.469059,-0.53729 4.617981,0.24617 1.148922,0.78346 1.148918,2.17094 -0.0217,2.88692 -1.170621,0.71598 -3.512101,0.76074 -4.661358,-0.0224 z"
       id="path363-0" />
  </g>
</svg>
