<?xml version="1.0" encoding="UTF-8" standalone="no"?>
<!-- Created with Inkscape (http://www.inkscape.org/) -->

<svg
   width="210mm"
   height="297mm"
   viewBox="0 0 210 297"
   version="1.1"
   id="svg5"
   xmlns="http://www.w3.org/2000/svg"
   xmlns:svg="http://www.w3.org/2000/svg">
  <defs
     id="defs2" />
  <g
     id="layer1">
    <path
       style="fill:#d35f5f;stroke:#000000;stroke-width:0.264583px;stroke-linecap:butt;stroke-linejoin:miter;stroke-opacity:1"
       d="m 37.523827,143.54886 c 1.030221,-0.32695 4.12077,-1.30712 6.181198,-1.96062 2.060428,-0.65349 3.605413,-1.14355 5.150627,-1.63368 0,0 0.491913,2.1844 0.491913,2.1844 -1.656205,0.381 -3.312153,0.76193 -5.486085,1.26196 -2.173933,0.50004 -5.279477,1.21429 -6.780069,1.82155 -1.500591,0.60726 -4.190317,2.2746 -5.799747,3.28971 -1.609431,1.0151 -2.811417,1.79508 -4.013278,2.57497 0.603345,-1.09254 1.206652,-2.18501 1.043763,-2.56914 -0.16289,-0.38413 -1.092405,-0.0597 -2.021744,0.26474 1.270101,-0.63201 2.540362,-1.2641 4.240828,-2.08189 1.700466,-0.81778 4.257604,-2.02213 5.109989,-2.42358 0.852385,-0.40145 0.852383,-0.40146 1.882605,-0.72842 z"
       id="path200" />
    <path
       style="fill:#00ff00;stroke:#000000;stroke-width:0.264583px;stroke-linecap:butt;stroke-linejoin:miter;stroke-opacity:1"
       d="m 43.762883,141.45518 c -4.686742,0.88635 -23.197538,5.39702 -28.815699,3.43072 -5.618162,-1.9663 1.656828,-10.40933 10.018243,-16.08998 8.361416,-5.68066 17.808088,-8.59819 25.965413,-7.34529 8.157325,1.25289 15.024215,6.67578 21.089496,13.43411 6.065281,6.75832 11.328317,14.85119 12.986682,21.9917 1.658366,7.1405 -0.287922,13.32804 5.515628,15.80439 5.803549,2.47635 19.355874,1.24163 31.692724,3.38127 12.33685,2.13965 23.45666,7.65321 29.7437,11.02698 6.28705,3.37377 7.74061,4.60726 3.44354,3.44952 -4.29707,-1.15773 -14.34429,-4.70643 -26.63143,-3.99988 -12.28715,0.70655 -26.81291,5.66853 -39.121382,5.08548 -12.308476,-0.58304 -22.399143,-6.7112 -25.904232,-13.58253 -3.50509,-6.87133 -0.424162,-14.48536 -1.532573,-19.95521 -1.108411,-5.46984 -6.406269,-8.79522 -13.023792,-9.14784 -6.617524,-0.35261 -14.553749,2.26784 -17.942952,2.28119 -3.389203,0.0134 -2.230731,-2.58057 2.917578,-5.24676 5.14831,-2.66619 14.285798,-5.40422 9.599056,-4.51787 z"
       id="path61" />
    <path
       style="fill:#000000;stroke:#000000;stroke-width:0.346573px;stroke-linecap:butt;stroke-linejoin:miter;stroke-opacity:1"
       d="m 24.353233,140.80325 c -2.188906,-0.10812 -4.041045,-2.44127 -4.113589,-2.73956 -0.07254,-0.29829 1.634404,1.43831 3.823422,1.5464 2.189018,0.1081 4.859311,-1.41215 4.931837,-1.11387 0.07253,0.29829 -2.452764,2.41514 -4.64167,2.30703 z"
       id="path363" />
    <path
       style="fill:#000000;stroke:#000000;stroke-width:0.346573px;stroke-linecap:butt;stroke-linejoin:miter;stroke-opacity:1"
       d="m 41.785568,139.0298 c -2.399041,0.15262 -4.18035,-1.70655 -3.946086,-2.09339 0.234264,-0.38683 2.483631,0.69867 4.882841,0.54616 2.39921,-0.1525 4.947485,-1.54278 4.713272,-1.15602 -0.234214,0.38676 -3.250986,2.55062 -5.650027,2.70325 z"
       id="path363-0" />
  </g>
</svg>
