<?xml version="1.0" encoding="UTF-8" standalone="no"?>
<!-- Created with Inkscape (http://www.inkscape.org/) -->

<svg
   width="210mm"
   height="297mm"
   viewBox="0 0 210 297"
   version="1.1"
   id="svg5"
   xmlns="http://www.w3.org/2000/svg"
   xmlns:svg="http://www.w3.org/2000/svg">
  <defs
     id="defs2" />
  <g
     id="layer1">
    <path
       style="fill:none;stroke:#000000;stroke-width:0.264583px;stroke-linecap:butt;stroke-linejoin:miter;stroke-opacity:1"
       d="m 96.351713,118.9059 c 14.095317,-5.53556 36.044287,-4.95502 49.826487,0.77817 13.7822,5.73318 19.39654,16.61804 18.96622,26.13753 -0.43032,9.5195 -6.90519,17.67293 -18.56847,22.78684 -11.66328,5.11391 -28.51409,7.18808 -45.32395,6.72376 -16.809873,-0.46432 -33.577198,-3.46722 -38.81649,-8.48836 -5.239292,-5.02115 1.049834,-12.06015 7.314908,-21.40548 6.265073,-9.34533 12.505982,-20.9969 26.601295,-26.53246 z"
       id="path42" />
    <path
       style="fill:none;stroke:#000000;stroke-width:0.341715px;stroke-linecap:butt;stroke-linejoin:miter;stroke-opacity:1"
       d="m 103.18671,136.24603 c 7.63156,-5.3636 18.50729,-8.11167 28.73851,-7.7591 10.23123,0.35258 19.81623,3.80551 22.87337,9.16916 3.05714,5.36365 -0.41389,12.63732 -7.39995,17.89806 -6.98605,5.26075 -17.48694,8.50852 -28.17557,8.50858 -10.68863,6e-5 -21.564557,-3.24771 -24.809514,-8.86108 -3.244957,-5.61338 1.141584,-13.59202 8.773154,-18.95562 z"
       id="path178" />
    <path
       style="fill:none;stroke:#000000;stroke-width:0.33819px;stroke-linecap:butt;stroke-linejoin:miter;stroke-opacity:1"
       d="m 109.60079,143.27519 c -1.36739,1.2308 -1.36739,3.44589 4e-5,4.55327 1.36743,1.10738 4.10185,1.10738 5.46892,-0.12309 1.36706,-1.23047 1.36706,-3.69163 -5e-5,-4.79936 -1.3671,-1.10773 -4.10152,-0.86161 -5.46891,0.36918 z"
       id="path413" />
    <path
       style="fill:none;stroke:#000000;stroke-width:0.33819px;stroke-linecap:butt;stroke-linejoin:miter;stroke-opacity:1"
       d="m 142.68933,143.86149 c -1.36739,1.2308 -1.36739,3.44589 4e-5,4.55327 1.36744,1.10738 4.10186,1.10738 5.46892,-0.12309 1.36707,-1.23047 1.36707,-3.69163 -4e-5,-4.79936 -1.36711,-1.10773 -4.10152,-0.86161 -5.46892,0.36918 z"
       id="path413-2" />
  </g>
</svg>
