<?xml version="1.0" encoding="UTF-8" standalone="no"?>
<!-- Created with Inkscape (http://www.inkscape.org/) -->

<svg
   width="210mm"
   height="297mm"
   viewBox="0 0 210 297"
   version="1.1"
   id="svg5"
   xmlns="http://www.w3.org/2000/svg"
   xmlns:svg="http://www.w3.org/2000/svg">
  <defs
     id="defs2" />
  <g
     id="layer1">
    <path
       style="fill:none;stroke:#000000;stroke-width:0.287816px;stroke-linecap:butt;stroke-linejoin:miter;stroke-opacity:1"
       d="m 97.934011,132.36241 c 14.761989,-5.32561 33.390649,-13.91386 44.786669,-12.67117 11.39603,1.24269 15.55802,12.31553 17.801,22.62285 2.24298,10.30733 2.56665,19.84738 -7.77567,24.97712 -10.34233,5.12974 -31.34949,5.84865 -51.01562,5.79173 -19.666127,-0.0569 -37.989025,-0.88973 -44.490075,-6.23063 -6.50105,-5.34091 -1.179482,-15.18972 6.928925,-21.14571 8.108407,-5.95598 19.002786,-8.01857 33.764771,-13.34419 z"
       id="path42" />
    <path
       style="fill:none;stroke:#000000;stroke-width:0.298156px;stroke-linecap:butt;stroke-linejoin:miter;stroke-opacity:1"
       d="m 117.79558,133.20912 c 3.82654,-6.05095 10.83509,-9.29769 17.42804,-8.88111 6.59295,0.41658 12.76953,4.49596 15.83069,10.54695 3.06115,6.05099 3.00665,14.07271 -0.40411,20.00203 -3.41076,5.92932 -10.17752,9.7663 -17.06514,9.76636 -6.88761,5e-5 -13.89604,-3.83693 -17.07826,-10.18282 -3.18222,-6.34589 -2.53776,-15.20047 1.28878,-21.25141 z"
       id="path178" />
    <path
       style="fill:none;stroke:#000000;stroke-width:0.33819px;stroke-linecap:butt;stroke-linejoin:miter;stroke-opacity:1"
       d="m 139.20869,130.79343 c -1.36739,1.2308 -1.36739,3.44589 4e-5,4.55327 1.36744,1.10738 4.10185,1.10738 5.46891,-0.12309 1.36707,-1.23047 1.36707,-3.69163 -4e-5,-4.79936 -1.3671,-1.10773 -4.10152,-0.86161 -5.46891,0.36918 z"
       id="path413" />
    <path
       style="fill:none;stroke:#000000;stroke-width:0.33819px;stroke-linecap:butt;stroke-linejoin:miter;stroke-opacity:1"
       d="m 128.7562,131.08946 c -1.36739,1.2308 -1.36739,3.44589 4e-5,4.55327 1.36744,1.10738 4.10186,1.10738 5.46892,-0.12309 1.36707,-1.23047 1.36707,-3.69163 -4e-5,-4.79936 -1.36711,-1.10773 -4.10152,-0.86161 -5.46892,0.36918 z"
       id="path413-2" />
  </g>
</svg>
