<?xml version="1.0" encoding="UTF-8" standalone="no"?>
<!-- Created with Inkscape (http://www.inkscape.org/) -->

<svg
   width="210mm"
   height="297mm"
   viewBox="0 0 210 297"
   version="1.1"
   id="svg5"
   xmlns="http://www.w3.org/2000/svg"
   xmlns:svg="http://www.w3.org/2000/svg">
  <defs
     id="defs2" />
  <g
     id="layer1">
    <path
       style="fill:none;stroke:#000000;stroke-width:0.307003px;stroke-linecap:butt;stroke-linejoin:miter;stroke-opacity:1"
       d="m 123.1577,135.14175 c -16.79576,-5.32563 -37.990895,-13.91387 -50.956934,-12.67117 -12.966038,1.24271 -17.701434,12.31554 -20.253424,22.62286 -2.55199,10.30732 -2.920254,19.84737 8.846932,24.97711 11.767186,5.12974 35.668503,5.84865 58.044036,5.79173 22.37554,-0.0569 43.22278,-0.88973 50.61947,-6.23065 7.39668,-5.34093 1.34196,-15.18974 -7.88354,-21.14571 -9.2255,-5.95597 -21.62079,-8.01855 -38.41654,-13.34417 z"
       id="path42" />
    <path
       style="fill:none;stroke:#000000;stroke-width:0.318032px;stroke-linecap:butt;stroke-linejoin:miter;stroke-opacity:1"
       d="m 100.5598,135.98845 c -4.35374,-6.05096 -12.327857,-9.2977 -19.829089,-8.88112 -7.501232,0.41659 -14.528763,4.49597 -18.011663,10.54696 -3.482899,6.051 -3.420888,14.07272 0.45975,20.00203 3.880639,5.92931 11.579654,9.76629 19.416211,9.76635 7.836557,6e-5 15.810535,-3.83692 19.431161,-10.18281 3.62062,-6.34588 2.88738,-15.20046 -1.46637,-21.25141 z"
       id="path178" />
    <path
       style="fill:none;stroke:#000000;stroke-width:0.360735px;stroke-linecap:butt;stroke-linejoin:miter;stroke-opacity:1"
       d="m 76.196625,133.57277 c 1.555778,1.2308 1.555778,3.44589 -4.9e-5,4.55327 -1.555826,1.10738 -4.666956,1.10738 -6.222362,-0.12309 -1.555405,-1.23047 -1.555405,-3.69163 4.4e-5,-4.79936 1.555448,-1.10773 4.666589,-0.86161 6.222367,0.36918 z"
       id="path413" />
    <path
       style="fill:none;stroke:#000000;stroke-width:0.360735px;stroke-linecap:butt;stroke-linejoin:miter;stroke-opacity:1"
       d="m 88.089149,133.8688 c 1.555783,1.2308 1.555783,3.44589 -4.4e-5,4.55327 -1.555826,1.10738 -4.666967,1.10738 -6.222373,-0.12309 -1.555405,-1.23047 -1.555405,-3.69163 4.9e-5,-4.79936 1.555454,-1.10773 4.666584,-0.86161 6.222368,0.36918 z"
       id="path413-2" />
  </g>
</svg>
