<?xml version="1.0" encoding="UTF-8" standalone="no"?>
<!-- Created with Inkscape (http://www.inkscape.org/) -->

<svg
   width="210mm"
   height="297mm"
   viewBox="0 0 210 297"
   version="1.1"
   id="svg5"
   xmlns="http://www.w3.org/2000/svg"
   xmlns:svg="http://www.w3.org/2000/svg">
  <defs
     id="defs2" />
  <g
     id="layer1">
    <path
       style="fill:none;stroke:#000000;stroke-width:0.287816px;stroke-linecap:butt;stroke-linejoin:miter;stroke-opacity:1"
       d="m 79.93694,108.31829 c 12.149636,-7.59951 31.06878,-6.80252 42.94849,1.06821 11.87971,7.87073 16.71915,22.8142 19.0588,34.62104 2.33965,11.80685 2.17955,20.47644 -5.1632,24.92871 -7.34274,4.45227 -21.86741,4.68742 -36.35689,4.04994 -14.489471,-0.63748 -28.942249,-2.14757 -36.168921,-6.47244 -7.226673,-4.32486 -7.226673,-11.46451 -4.537004,-23.03235 2.689668,-11.56785 8.06909,-27.56361 20.218725,-35.16311 z"
       id="path42" />
    <path
       style="fill:none;stroke:#000000;stroke-width:0.349027px;stroke-linecap:butt;stroke-linejoin:miter;stroke-opacity:1"
       d="m 77.321667,128.36948 c 5.624314,-5.64152 15.925474,-8.66858 25.615663,-8.28018 9.69018,0.38841 18.76851,4.19176 23.26782,9.83333 4.49931,5.64157 4.41921,13.12051 -0.59383,18.64859 -5.01304,5.52809 -14.9588,9.10545 -25.08234,9.10551 -10.123532,7e-5 -20.42449,-3.57729 -25.101665,-9.49378 -4.677175,-5.9165 -3.729962,-14.17194 1.894352,-19.81347 z"
       id="path178" />
    <path
       style="fill:none;stroke:#000000;stroke-width:0.33819px;stroke-linecap:butt;stroke-linejoin:miter;stroke-opacity:1"
       d="m 81.734527,136.30863 c -1.367389,1.2308 -1.367389,3.44589 4.4e-5,4.55327 1.367433,1.10738 4.10185,1.10738 5.468915,-0.12309 1.367065,-1.23047 1.367065,-3.69163 -4.4e-5,-4.79936 -1.367108,-1.10773 -4.101525,-0.86161 -5.468915,0.36918 z"
       id="path413" />
    <path
       style="fill:none;stroke:#000000;stroke-width:0.33819px;stroke-linecap:butt;stroke-linejoin:miter;stroke-opacity:1"
       d="m 114.82307,136.89493 c -1.36739,1.2308 -1.36739,3.44589 5e-5,4.55327 1.36743,1.10738 4.10185,1.10738 5.46892,-0.12309 1.36706,-1.23047 1.36706,-3.69163 -5e-5,-4.79936 -1.36711,-1.10773 -4.10152,-0.86161 -5.46892,0.36918 z"
       id="path413-2" />
  </g>
</svg>
