<?xml version="1.0" encoding="UTF-8" standalone="no"?>
<!-- Created with Inkscape (http://www.inkscape.org/) -->

<svg
   width="210mm"
   height="297mm"
   viewBox="0 0 210 297"
   version="1.1"
   id="svg5"
   xmlns="http://www.w3.org/2000/svg"
   xmlns:svg="http://www.w3.org/2000/svg">
  <defs
     id="defs2" />
  <g
     id="layer1">
    <path
       style="fill:none;stroke:#000000;stroke-width:0.257633px;stroke-linecap:butt;stroke-linejoin:miter;stroke-opacity:1"
       d="m 72.600109,131.35427 c 16.61657,-4.45212 42.491651,-3.9852 58.739151,0.62593 16.24751,4.61113 22.86625,13.36584 26.06609,20.28289 3.19983,6.91706 2.98087,11.99617 -7.06155,15.36983 -10.04242,3.37366 -29.90741,5.04188 -49.72416,4.66843 -19.816753,-0.37345 -39.583329,-2.78864 -49.466979,-6.08765 -9.88365,-3.29901 -9.88365,-7.48181 -6.205013,-14.25897 3.678638,-6.77715 11.035891,-16.14834 27.652461,-20.60046 z"
       id="path42" />
    <path
       style="fill:none;stroke:#000000;stroke-width:0.332738px;stroke-linecap:butt;stroke-linejoin:miter;stroke-opacity:1"
       d="m 71.70358,143.00504 c 7.000492,-4.11935 19.822096,-6.32966 31.88316,-6.04605 12.06106,0.2836 23.36063,3.06076 28.96084,7.18016 5.60021,4.1194 5.50051,9.58041 -0.73905,13.61694 -6.23955,4.03652 -18.61877,6.64865 -31.21939,6.6487 -12.600616,5e-5 -25.421966,-2.61208 -31.243496,-6.93224 -5.82153,-4.32017 -4.642557,-10.34817 2.357936,-14.46751 z"
       id="path178" />
    <path
       style="fill:none;stroke:#000000;stroke-width:0.329306px;stroke-linecap:butt;stroke-linejoin:miter;stroke-opacity:1"
       d="m 79.383568,146.32093 c -2.231469,0.32823 -3.072836,3.20176 -2.632154,3.67717 0.440682,0.47542 2.163278,-1.4472 4.394718,-1.77542 2.23144,-0.32823 4.971068,0.93806 4.530409,0.46261 -0.440658,-0.47545 -4.061503,-2.69259 -6.292973,-2.36436 z"
       id="path413" />
    <path
       style="fill:none;stroke:#000000;stroke-width:0.329306px;stroke-linecap:butt;stroke-linejoin:miter;stroke-opacity:1"
       d="m 112.59661,148.75282 c -0.35147,0.55159 2.55628,-0.627 4.73042,-0.0472 2.17415,0.57983 3.61402,2.91757 3.96545,2.36598 0.35143,-0.55159 -0.38558,-3.99255 -2.55952,-4.57236 -2.17395,-0.57981 -5.78489,1.70197 -6.13635,2.25356 z"
       id="path413-2" />
  </g>
</svg>
