<?xml version="1.0" encoding="UTF-8" standalone="no"?>
<!-- Created with Inkscape (http://www.inkscape.org/) -->

<svg
   width="210mm"
   height="297mm"
   viewBox="0 0 210 297"
   version="1.1"
   id="svg5"
   xmlns="http://www.w3.org/2000/svg"
   xmlns:svg="http://www.w3.org/2000/svg">
  <defs
     id="defs2" />
  <g
     id="layer1">
    <path
       style="fill:none;stroke:#000000;stroke-width:0.220591px;stroke-linecap:butt;stroke-linejoin:miter;stroke-opacity:1"
       d="m 91.302711,85.999491 c 5.658849,-9.584451 14.470639,-8.579307 20.003719,1.34714 5.53307,9.926447 7.78709,28.772949 11.29592,43.470099 3.50883,14.69716 8.27174,25.2434 4.85163,32.50635 -3.4201,7.26295 -15.02286,11.2412 -27.09302,11.50157 -12.07017,0.26036 -24.607062,-3.19728 -27.973074,-10.29925 -3.366012,-7.10198 2.439333,-17.84801 6.594894,-33.30792 4.155561,-15.45991 6.661082,-35.633538 12.319931,-45.217989 z"
       id="path42" />
    <path
       style="fill:none;stroke:#000000;stroke-width:0.284898px;stroke-linecap:butt;stroke-linejoin:miter;stroke-opacity:1"
       d="m 90.126404,102.66255 c 2.383855,-8.867732 6.750266,-13.625942 10.857916,-13.015494 4.10766,0.610447 7.95573,6.588901 9.86283,15.456764 1.90709,8.86786 1.87314,20.62396 -0.15505,27.0881 -2.02819,6.46413 -6.05028,7.63653 -10.34132,7.63659 -4.291033,7e-5 -8.850878,-1.17237 -10.930305,-8.24696 -2.079427,-7.07459 -1.677925,-20.05126 0.705929,-28.919 z"
       id="path178" />
    <path
       style="fill:none;stroke:#000000;stroke-width:0.281959px;stroke-linecap:butt;stroke-linejoin:miter;stroke-opacity:1"
       d="m 92.718801,108.99974 c -0.548859,2.13097 -0.548859,5.9662 1.21e-4,7.88353 0.54898,1.91733 1.646759,1.91733 2.195591,-0.21312 0.548832,-2.13045 0.548832,-6.39172 -1.2e-4,-8.30962 -0.548951,-1.91789 -1.646733,-1.49176 -2.195592,0.63921 z"
       id="path413" />
    <path
       style="fill:none;stroke:#000000;stroke-width:0.281959px;stroke-linecap:butt;stroke-linejoin:miter;stroke-opacity:1"
       d="m 106.00277,108.85378 c -0.54886,2.13097 -0.54886,5.9662 1.2e-4,7.88353 0.54898,1.91732 1.64676,1.91732 2.19559,-0.21313 0.54884,-2.13044 0.54884,-6.39172 -1.1e-4,-8.30961 -0.54896,-1.91789 -1.64674,-1.49176 -2.1956,0.63921 z"
       id="path413-2" />
  </g>
</svg>
