<?xml version="1.0" encoding="UTF-8" standalone="no"?>
<!-- Created with Inkscape (http://www.inkscape.org/) -->

<svg
   width="210mm"
   height="297mm"
   viewBox="0 0 210 297"
   version="1.1"
   id="svg5"
   xmlns="http://www.w3.org/2000/svg"
   xmlns:svg="http://www.w3.org/2000/svg">
  <defs
     id="defs2" />
  <g
     id="layer1">
    <path
       style="fill:none;stroke:#000000;stroke-width:0.264583px;stroke-linecap:butt;stroke-linejoin:miter;stroke-opacity:1"
       d="m 77.483934,124.4211 c 14.095315,-5.53556 36.044286,-4.95502 49.826486,0.77817 13.7822,5.73318 19.39666,16.61825 22.11098,25.21853 2.71433,8.60028 2.52859,14.91535 -5.99007,19.10995 -8.51866,4.1946 -25.36947,6.26877 -42.17933,5.80445 -16.809873,-0.46432 -33.577198,-3.46722 -41.961177,-7.56902 -8.383979,-4.1018 -8.383979,-9.30244 -5.263546,-17.72869 3.120434,-8.42626 9.361343,-20.07783 23.456657,-25.61339 z"
       id="path42" />
    <path
       style="fill:none;stroke:#000000;stroke-width:0.341715px;stroke-linecap:butt;stroke-linejoin:miter;stroke-opacity:1"
       d="m 76.72344,138.90694 c 5.93826,-5.12176 16.814397,-7.86994 27.04543,-7.51732 10.23104,0.35262 19.81609,3.80557 24.56655,8.92739 4.75045,5.12181 4.66588,11.91171 -0.62696,16.93048 -5.29283,5.01878 -15.79372,8.26655 -26.48235,8.26661 -10.688634,6e-5 -21.564556,-3.2477 -26.502785,-8.61912 -4.93823,-5.37141 -3.938146,-12.86627 2.000115,-17.98804 z"
       id="path178" />
    <path
       style="fill:none;stroke:#000000;stroke-width:0.33819px;stroke-linecap:butt;stroke-linejoin:miter;stroke-opacity:1"
       d="m 81.734527,146.75847 c -1.367389,1.2308 -1.367389,3.44589 4.4e-5,4.55327 1.367433,1.10738 4.10185,1.10738 5.468915,-0.12309 1.367065,-1.23047 1.367065,-3.69163 -4.4e-5,-4.79936 -1.367108,-1.10773 -4.101525,-0.86161 -5.468915,0.36918 z"
       id="path413" />
    <path
       style="fill:none;stroke:#000000;stroke-width:0.33819px;stroke-linecap:butt;stroke-linejoin:miter;stroke-opacity:1"
       d="m 114.82307,147.34477 c -1.36739,1.2308 -1.36739,3.44589 5e-5,4.55327 1.36743,1.10738 4.10185,1.10738 5.46892,-0.12309 1.36706,-1.23047 1.36706,-3.69163 -5e-5,-4.79936 -1.36711,-1.10773 -4.10152,-0.86161 -5.46892,0.36918 z"
       id="path413-2" />
  </g>
</svg>
