<?xml version="1.0" encoding="UTF-8" standalone="no"?>
<!-- Created with Inkscape (http://www.inkscape.org/) -->

<svg
   width="210mm"
   height="297mm"
   viewBox="0 0 210 297"
   version="1.1"
   id="svg5"
   xmlns="http://www.w3.org/2000/svg"
   xmlns:svg="http://www.w3.org/2000/svg">
  <defs
     id="defs2" />
  <g
     id="layer1">
    <path
       style="fill:#00c1ff;stroke:#000000;stroke-width:0.264583px;stroke-linecap:butt;stroke-linejoin:miter;stroke-opacity:1;fill-opacity:0.56275302"
       d="m 105.7322,128.38326 c 21.62171,0.39611 43.48048,12.75107 57.57824,33.18515 14.09776,20.43407 20.4335,48.94493 -3.40607,63.04266 C 136.06479,238.7088 82.052551,238.39201 57.262303,223.73982 32.472055,209.08763 36.907077,180.10159 49.816999,159.82586 62.726921,139.55012 84.110495,127.98715 105.7322,128.38326 Z"
       id="path42" />
    <path
       style="fill:#8affff;fill-opacity:0.47368422;stroke:#000000;stroke-width:0.380799px;stroke-linecap:butt;stroke-linejoin:miter;stroke-opacity:1"
       d="m 75.955695,160.89293 c 15.678091,-11.32276 47.261105,-10.86528 63.393255,1.25831 16.13215,12.1236 16.81379,35.91199 1.13576,47.23437 C 124.80668,220.708 92.769872,219.56433 76.637343,207.44111 60.504815,195.31789 60.277604,172.2157 75.955695,160.89293 Z"
       id="path1255" />
    <path
       style="fill:none;stroke:#000000;stroke-width:0.264583px;stroke-linecap:butt;stroke-linejoin:miter;stroke-opacity:1"
       d="m 87.120149,170.43854 c 1.267315,-1.26734 4.118515,-1.26734 5.623193,2e-5 1.504678,1.26737 1.663075,3.80172 0.395971,5.06878 -1.267104,1.26706 -3.959851,1.26706 -5.464768,-2e-5 -1.504917,-1.26708 -1.82171,-3.80143 -0.554396,-5.06878 z"
       id="path1513" />
    <path
       style="fill:none;stroke:#000000;stroke-width:0.264583px;stroke-linecap:butt;stroke-linejoin:miter;stroke-opacity:1"
       d="m 121.42172,172.1698 c 1.26731,-1.26734 4.11851,-1.26734 5.62319,2e-5 1.50468,1.26737 1.66308,3.80173 0.39597,5.06878 -1.2671,1.26706 -3.95985,1.26706 -5.46477,-2e-5 -1.50491,-1.26708 -1.8217,-3.80143 -0.55439,-5.06878 z"
       id="path1513-0" />
  </g>
</svg>
