<?xml version="1.0" encoding="UTF-8" standalone="no"?>
<!-- Created with Inkscape (http://www.inkscape.org/) -->

<svg
   width="210mm"
   height="297mm"
   viewBox="0 0 210 297"
   version="1.1"
   id="svg5"
   xmlns="http://www.w3.org/2000/svg"
   xmlns:svg="http://www.w3.org/2000/svg">
  <defs
     id="defs2" />
  <g
     id="layer1">
    <path
       style="fill:none;stroke:#000000;stroke-width:0.264583px;stroke-linecap:butt;stroke-linejoin:miter;stroke-opacity:1"
       d="m 51.649591,127.03356 c 14.095316,-5.53556 36.044281,-4.95502 49.826489,0.77817 13.7822,5.73318 19.39654,16.61803 26.41689,24.78297 7.02035,8.16494 15.44589,13.60921 11.2328,17.36843 -4.2131,3.75922 -21.06391,5.83339 -37.87377,5.36907 -16.809873,-0.46432 -33.577198,-3.46722 -46.266829,-7.13365 -12.68963,-3.66644 -21.300897,-7.99628 -22.486351,-15.98707 -1.185454,-7.99079 5.055455,-19.64236 19.150771,-25.17792 z"
       id="path42" />
    <path
       style="fill:none;stroke:#000000;stroke-width:0.341715px;stroke-linecap:butt;stroke-linejoin:miter;stroke-opacity:1"
       d="m 44.019396,140.9389 c 4.099793,-5.12182 14.975523,-7.86989 25.206744,-7.51732 10.231221,0.35258 19.816226,3.80551 26.405243,8.92736 6.589017,5.12184 10.181157,11.91174 6.726627,16.93049 -3.45454,5.01875 -13.955424,8.26652 -24.644057,8.26658 -10.688633,6e-5 -21.564555,-3.2477 -28.341132,-8.61907 -6.776578,-5.37137 -9.453218,-12.86623 -5.353425,-17.98804 z"
       id="path178" />
    <path
       style="fill:none;stroke:#000000;stroke-width:0.33819px;stroke-linecap:butt;stroke-linejoin:miter;stroke-opacity:1"
       d="m 46.901703,147.04874 c -1.367389,1.2308 -1.367389,3.44589 4.4e-5,4.55327 1.367433,1.10738 4.10185,1.10738 5.468915,-0.12309 1.367065,-1.23047 1.367065,-3.69163 -4.4e-5,-4.79936 -1.367108,-1.10773 -4.101525,-0.86161 -5.468915,0.36918 z"
       id="path413" />
    <path
       style="fill:none;stroke:#000000;stroke-width:0.33819px;stroke-linecap:butt;stroke-linejoin:miter;stroke-opacity:1"
       d="m 79.990249,147.63504 c -1.367393,1.2308 -1.367393,3.44589 4.2e-5,4.55327 1.367435,1.10738 4.101855,1.10738 5.46892,-0.12309 1.367065,-1.23047 1.367065,-3.69163 -4.7e-5,-4.79936 -1.367111,-1.10773 -4.101521,-0.86161 -5.468915,0.36918 z"
       id="path413-2" />
  </g>
</svg>
