<?xml version="1.0" encoding="UTF-8" standalone="no"?>
<!-- Created with Inkscape (http://www.inkscape.org/) -->

<svg
   width="210mm"
   height="297mm"
   viewBox="0 0 210 297"
   version="1.1"
   id="svg5"
   sodipodi:docname="surprise_data.svg"
   inkscape:version="1.1.2 (b8e25be8, 2022-02-05)"
   xmlns:inkscape="http://www.inkscape.org/namespaces/inkscape"
   xmlns:sodipodi="http://sodipodi.sourceforge.net/DTD/sodipodi-0.dtd"
   xmlns="http://www.w3.org/2000/svg"
   xmlns:svg="http://www.w3.org/2000/svg">
  <sodipodi:namedview
     id="namedview7"
     pagecolor="#ffffff"
     bordercolor="#666666"
     borderopacity="1.0"
     inkscape:pageshadow="2"
     inkscape:pageopacity="0.0"
     inkscape:pagecheckerboard="0"
     inkscape:document-units="mm"
     showgrid="false"
     inkscape:zoom="1.4307623"
     inkscape:cx="439.97525"
     inkscape:cy="447.31399"
     inkscape:window-width="1312"
     inkscape:window-height="758"
     inkscape:window-x="37"
     inkscape:window-y="25"
     inkscape:window-maximized="0"
     inkscape:current-layer="layer1" />
  <defs
     id="defs2">
    <inkscape:path-effect
       effect="bspline"
       id="path-effect365"
       is_visible="true"
       lpeversion="1"
       weight="33.333333"
       steps="2"
       helper_size="0"
       apply_no_weight="true"
       apply_with_weight="true"
       only_selected="false" />
    <inkscape:path-effect
       effect="spiro"
       id="path-effect135"
       is_visible="true"
       lpeversion="1" />
    <inkscape:path-effect
       effect="spiro"
       id="path-effect131"
       is_visible="true"
       lpeversion="1" />
    <inkscape:path-effect
       effect="bspline"
       id="path-effect67"
       is_visible="true"
       lpeversion="1"
       weight="33.333333"
       steps="2"
       helper_size="0"
       apply_no_weight="true"
       apply_with_weight="true"
       only_selected="false" />
    <inkscape:path-effect
       effect="bspline"
       id="path-effect63"
       is_visible="true"
       lpeversion="1"
       weight="33.333333"
       steps="2"
       helper_size="0"
       apply_no_weight="true"
       apply_with_weight="true"
       only_selected="false" />
    <inkscape:path-effect
       effect="bspline"
       id="path-effect365-7"
       is_visible="true"
       lpeversion="1"
       weight="33.333333"
       steps="2"
       helper_size="0"
       apply_no_weight="true"
       apply_with_weight="true"
       only_selected="false" />
    <inkscape:path-effect
       effect="bspline"
       id="path-effect444"
       is_visible="true"
       lpeversion="1"
       weight="33.333333"
       steps="2"
       helper_size="0"
       apply_no_weight="true"
       apply_with_weight="true"
       only_selected="false" />
    <inkscape:path-effect
       effect="bspline"
       id="path-effect444-8"
       is_visible="true"
       lpeversion="1"
       weight="33.333333"
       steps="2"
       helper_size="0"
       apply_no_weight="true"
       apply_with_weight="true"
       only_selected="false" />
  </defs>
  <g
     inkscape:label="Layer 1"
     inkscape:groupmode="layer"
     id="layer1">
    <path
       style="fill:#d35f5f;stroke:#000000;stroke-width:0.264583px;stroke-linecap:butt;stroke-linejoin:miter;stroke-opacity:1"
       d="m 94.297978,94.957999 c 2.259405,-0.396261 4.311972,-0.756091 6.789232,-0.791631 2.47725,-0.03554 4.14515,0.46912 5.81349,0.973915 0,0 -0.552,2.169994 -0.552,2.169994 -1.71779,-0.652386 -3.29199,-1.250241 -5.96349,-1.257272 -2.671514,-0.007 -6.688512,0.792362 -8.47251,0.641939 -1.783998,-0.150423 -4.63503,-1.605273 -6.521202,-2.10985 -1.886172,-0.504578 -3.520652,-0.422458 -5.154823,-0.340354 1.24247,-0.632138 2.484947,-1.264278 2.513914,-1.680491 0.02897,-0.416213 -1.155979,-0.616574 -2.340717,-0.8169 1.627939,0.08065 3.256093,0.161309 5.194304,0.76256 1.93821,0.60125 4.63585,1.947088 5.535121,2.395729 0.899272,0.448642 0.899277,0.448623 3.158681,0.05236 z"
       id="path200"
       inkscape:path-effect="#path-effect444-8"
       inkscape:original-d="m 92.038665,95.353902 c 4.518771,-0.791862 6.571338,-1.151692 9.857005,-1.728004 1.66874,0.5051 5.00503,1.514385 5.00503,1.514385 l -0.552,2.169994 c 0,0 -3.29204,-1.250098 -5.15336,-1.957159 -3.481583,0.693161 -7.498581,1.492555 -9.641431,1.91867 -1.425259,-0.727164 -4.276292,-2.182014 -6.414721,-3.27336 -1.633848,0.08237 -4.902513,0.246312 -4.902513,0.246312 0,0 2.485108,-1.263961 3.727411,-1.896413 -1.184566,-0.200077 -3.554214,-0.600978 -3.554214,-0.600978 0,0 3.256081,0.16156 4.883818,0.241948 2.248643,1.121968 4.946283,2.467806 6.744879,3.364983 2.9e-4,1.64e-4 3.17e-4,6e-5 9.6e-5,-3.78e-4 z"
       sodipodi:nodetypes="ccccccccccccc" />
    <path
       style="fill:#00ff00;stroke:#000000;stroke-width:0.264583px;stroke-linecap:butt;stroke-linejoin:miter;stroke-opacity:1"
       d="m 105.11098,93.738818 c -4.15831,-3.63238 -23.145932,-7.79835 -28.182401,-13.529123 -5.03647,-5.730772 3.878736,-13.025654 12.47863,-14.367673 8.599893,-1.342019 16.883171,3.268785 24.458691,8.285958 7.57553,5.017173 14.44242,10.440064 14.5826,19.484015 0.14018,9.043955 -6.44602,21.707995 -15.58062,36.139235 -9.1346,14.43125 -20.816508,30.628 -20.137322,39.03147 0.679187,8.40348 13.719072,9.01269 23.901692,6.9271 10.18261,-2.0856 17.50693,-6.86569 22.63423,-11.14054 5.12731,-4.27484 8.05706,-8.044 6.35496,-4.58761 -1.70211,3.45639 -8.03585,14.13786 -18.87603,21.35527 -10.84018,7.21741 -26.18576,10.97002 -38.93529,9.9981 -12.749534,-0.97193 -22.901638,-6.66849 -23.897579,-17.92921 -0.995941,-11.26072 7.164773,-28.08419 16.849353,-40.84492 9.68458,-12.76072 20.891766,-21.45701 21.760596,-24.31475 0.86882,-2.85775 -8.600934,0.12341 -12.756956,0.31713 -4.156021,0.19372 -2.997549,-2.4002 2.917575,-5.24676 5.915125,-2.84656 16.586181,-5.945313 12.427871,-9.577692 z"
       id="path61"
       inkscape:path-effect="#path-effect63"
       inkscape:original-d="m 119.9404,94.272431 c -18.98777,-4.165794 -37.975395,-8.331766 -56.964054,-12.49817 8.915999,-7.29505 17.831205,-14.589932 26.746673,-21.88551 8.284033,4.611342 16.567311,9.222148 24.850821,13.83296 6.86756,5.423477 13.73445,10.846368 20.60149,16.26932 -6.58634,12.665079 -13.17254,25.329119 -19.7594,37.993669 -11.68235,16.19799 -23.364258,32.39475 -35.047133,48.59221 13.040936,0.60952 26.080823,1.21873 39.121233,1.82772 7.32503,-4.78012 14.64935,-9.56022 21.97385,-14.34086 2.93019,-3.76913 5.85995,-7.53829 8.78963,-11.30794 -6.33387,10.68239 -12.66761,21.36387 -19.002,32.04572 -15.3462,3.75309 -30.69178,7.5057 -46.038527,11.25827 -10.152447,-5.69664 -20.304552,-11.3932 -30.457522,-17.09037 8.16146,-16.8242 16.322171,-33.64768 24.483108,-50.47243 11.208135,-8.69655 22.415321,-17.39284 33.622931,-26.08993 -9.47009,2.98161 -18.939845,5.96277 -28.410478,8.94386 1.15881,-2.59382 2.317281,-5.18774 3.475559,-7.78208 10.671744,-3.09861 21.342799,-6.197361 32.013819,-9.296439 z"
       sodipodi:nodetypes="cccccccccccccccccc" />
    <path
       style="fill:#000000;stroke:#000000;stroke-width:0.543778px;stroke-linecap:butt;stroke-linejoin:miter;stroke-opacity:1"
       d="m 85.972829,77.800773 c -1.149243,-1.927845 -1.105881,-5.894549 0.06515,-7.657988 1.171037,-1.76344 3.46912,-1.322703 4.61798,0.606011 1.14886,1.928715 1.14886,5.344418 -0.02178,7.107026 -1.170638,1.762608 -3.512113,1.872796 -4.661356,-0.05505 z"
       id="path363"
       inkscape:path-effect="#path-effect365"
       inkscape:original-d="m 84.780234,79.838823 c 0.04371,-3.965891 0.08706,-7.932595 0.130086,-11.900333 2.298554,0.441623 4.596637,0.882359 6.894505,1.322259 3.4e-4,3.416762 3.4e-4,6.832465 -2e-6,10.247503 -2.341236,0.111027 -4.682718,0.22107 -7.024589,0.330571 z"
       sodipodi:nodetypes="ccccc" />
    <path
       style="fill:#000000;stroke:#000000;stroke-width:0.540823px;stroke-linecap:butt;stroke-linejoin:miter;stroke-opacity:1"
       d="m 106.18764,86.769628 c -1.14924,-1.906955 -1.10588,-5.830675 0.0652,-7.575005 1.17103,-1.74433 3.46911,-1.30837 4.61798,0.599444 1.14886,1.907815 1.14885,5.286505 -0.0218,7.030013 -1.17064,1.743508 -3.51211,1.852502 -4.66136,-0.05445 z"
       id="path363-0"
       inkscape:path-effect="#path-effect365-7"
       inkscape:original-d="m 104.99505,88.785593 c 0.0437,-3.922916 0.0871,-7.846636 0.13008,-11.771378 2.29856,0.436837 4.59664,0.872798 6.89451,1.30793 3.4e-4,3.379737 3.4e-4,6.758427 -10e-6,10.136459 -2.34123,0.109824 -4.68271,0.218674 -7.02458,0.326989 z"
       sodipodi:nodetypes="ccccc" />
  </g>
</svg>
