<?xml version="1.0" encoding="UTF-8" standalone="no"?>
<!-- Created with Inkscape (http://www.inkscape.org/) -->

<svg
   width="210mm"
   height="297mm"
   viewBox="0 0 210 297"
   version="1.1"
   id="svg5"
   xmlns="http://www.w3.org/2000/svg"
   xmlns:svg="http://www.w3.org/2000/svg">
  <defs
     id="defs2" />
  <g
     id="layer1">
    <path
       style="fill:#d35f5f;stroke:#000000;stroke-width:0.264583px;stroke-linecap:butt;stroke-linejoin:miter;stroke-opacity:1"
       d="m 62.628614,118.4266 c 1.072625,-0.1331 4.290267,-0.53184 6.435431,-0.7977 2.145165,-0.26586 3.753701,-0.46524 5.362471,-0.66466 0,0 0.08434,2.23751 0.08434,2.23751 -1.697942,0.0718 -3.39562,0.14367 -5.624326,0.2379 -2.228707,0.0942 -5.412489,0.22879 -7.082808,0.38494 -1.670318,0.15614 -4.955749,0.63727 -6.926731,0.92588 -1.970983,0.28861 -3.449712,0.5051 -4.928092,0.72154 0.947097,-0.63322 1.894269,-1.26648 1.804327,-1.67383 -0.08994,-0.40735 -1.217414,-0.58898 -2.344603,-0.77056 1.518438,-0.0586 3.037143,-0.11715 5.061592,-0.19513 2.02445,-0.078 5.061293,-0.19485 6.073534,-0.2338 1.012241,-0.039 1.01224,-0.039 2.084865,-0.17209 z"
       id="path200" />
    <path
       style="fill:#00ff00;stroke:#000000;stroke-width:0.264583px;stroke-linecap:butt;stroke-linejoin:miter;stroke-opacity:1"
       d="m 69.115526,117.65722 c -4.550779,0.16068 -23.760897,1.36211 -28.908583,-1.68481 -5.147686,-3.04692 3.767517,-10.34181 12.478621,-14.36773 8.711104,-4.02593 17.21687,-4.782425 24.903676,-2.448963 7.686807,2.333463 14.553696,7.756353 14.764552,18.861013 0.210855,11.10467 -6.234003,27.88985 -8.99174,38.02418 -2.757737,10.13434 -1.82816,13.61643 4.23575,16.15351 6.063911,2.53708 17.261208,4.12912 27.108088,2.84317 9.84688,-1.28596 18.34235,-5.44966 24.05523,-9.41629 5.71288,-3.96662 8.64264,-7.73578 7.07272,-4.49789 -1.56992,3.23789 -7.63933,13.48243 -18.12303,20.65805 -10.4837,7.17562 -25.38098,11.2817 -38.278989,10.31555 -12.898003,-0.96615 -23.795921,-7.00446 -29.935338,-12.81346 -6.139417,-5.809 -7.519354,-11.38812 -3.859486,-20.43886 3.659869,-9.05074 12.359221,-21.57176 12.255285,-27.45138 -0.103937,-5.87963 -9.011395,-5.11709 -12.886288,-6.03277 -3.874893,-0.91568 -2.716421,-3.5096 2.917571,-5.24677 5.633992,-1.73716 15.74274,-2.61724 11.191961,-2.45655 z"
       id="path61" />
    <path
       style="fill:#000000;stroke:#000000;stroke-width:0.412358px;stroke-linecap:butt;stroke-linejoin:miter;stroke-opacity:1"
       d="m 56.04786,110.00433 c -1.149255,-1.10861 -1.105895,-3.38966 0.06509,-4.40373 1.170989,-1.01407 3.46907,-0.76062 4.617978,0.34849 1.148909,1.10911 1.148905,3.07331 -0.02172,4.0869 -1.170624,1.01359 -3.5121,1.07695 -4.661354,-0.0317 z"
       id="path363" />
    <path
       style="fill:#000000;stroke:#000000;stroke-width:0.398912px;stroke-linecap:butt;stroke-linejoin:miter;stroke-opacity:1"
       d="m 75.541569,112.71613 c -1.149253,-1.03749 -1.105891,-3.17221 0.06509,-4.12122 1.170984,-0.94902 3.469064,-0.71183 4.61798,0.32613 1.148917,1.03796 1.148913,2.87616 -0.02172,3.82472 -1.170628,0.94856 -3.512105,1.00786 -4.661358,-0.0296 z"
       id="path363-0" />
  </g>
</svg>
