<?xml version="1.0" encoding="UTF-8" standalone="no"?>
<!-- Created with Inkscape (http://www.inkscape.org/) -->

<svg
   width="210mm"
   height="297mm"
   viewBox="0 0 210 297"
   version="1.1"
   id="svg5"
   xmlns="http://www.w3.org/2000/svg"
   xmlns:svg="http://www.w3.org/2000/svg">
  <defs
     id="defs2" />
  <g
     id="layer1">
    <path
       style="fill:#d35f5f;stroke:#000000;stroke-width:0.264583px;stroke-linecap:butt;stroke-linejoin:miter;stroke-opacity:1"
       d="m 62.657999,118.45021 c 1.076877,-0.0926 4.307256,-0.36986 6.460912,-0.55473 2.153656,-0.18487 3.76856,-0.32353 5.3837,-0.46221 0,0 0,2.2391 0,2.2391 -1.699443,0.008 -3.398621,0.0157 -5.629296,0.0259 -2.230674,0.0102 -5.417265,0.0248 -7.09228,0.11788 -1.675016,0.0931 -4.976236,0.45016 -6.95669,0.66432 -1.980455,0.21416 -3.466291,0.3748 -4.951774,0.5354 0.970277,-0.59709 1.940628,-1.19423 1.866094,-1.60468 -0.07453,-0.41045 -1.194364,-0.63442 -2.313914,-0.85833 1.519567,-0.001 3.039399,-0.003 5.06535,-0.004 2.02595,-0.002 5.06504,-0.004 6.07803,-0.005 1.01299,-8e-4 1.01299,-8.2e-4 2.089868,-0.0934 z"
       id="path200" />
    <path
       style="fill:#00ff00;stroke:#000000;stroke-width:0.264583px;stroke-linecap:butt;stroke-linejoin:miter;stroke-opacity:1"
       d="m 69.579882,117.24173 c -4.330766,-2.11224 -22.856565,-3.5992 -27.662099,-7.9904 -4.805534,-4.39119 4.109673,-11.686074 12.47864,-14.3677 8.368967,-2.681627 16.190428,-0.749779 23.535026,2.927885 7.344598,3.677665 14.211487,9.100555 14.826097,20.160365 0.614609,11.05981 -5.022789,27.75527 -7.376775,37.84474 -2.353986,10.08946 -1.424406,13.57156 5.177846,16.5124 6.602251,2.94084 18.876413,5.34039 29.261503,4.45816 10.38509,-0.88224 18.88073,-5.04602 24.59353,-9.01261 5.71279,-3.96658 8.64261,-7.73582 6.35488,-4.58763 -2.28773,3.1482 -9.79277,13.21349 -21.21849,20.03014 -11.42571,6.81665 -26.77159,10.38441 -39.490155,9.10424 -12.718563,-1.28016 -22.80923,-7.40832 -28.544788,-13.26213 -5.735558,-5.8538 -7.115495,-11.43292 -3.859383,-20.43879 3.256112,-9.00588 11.148003,-21.43717 10.762486,-26.34321 -0.385516,-4.90603 -9.048581,-2.2861 -12.801233,-2.27301 -3.752653,0.0131 -2.594181,-2.58082 2.917575,-5.24676 5.511757,-2.66593 15.376106,-5.40344 11.04534,-7.51569 z"
       id="path61" />
    <path
       style="fill:#000000;stroke:#000000;stroke-width:0.412358px;stroke-linecap:butt;stroke-linejoin:miter;stroke-opacity:1"
       d="m 56.317024,107.58186 c -1.149255,-1.10861 -1.105895,-3.38966 0.06509,-4.40373 1.170989,-1.01407 3.46907,-0.76062 4.617978,0.34849 1.148909,1.10911 1.148905,3.07331 -0.02172,4.0869 -1.170624,1.01359 -3.5121,1.07695 -4.661354,-0.0317 z"
       id="path363" />
    <path
       style="fill:#000000;stroke:#000000;stroke-width:0.398912px;stroke-linecap:butt;stroke-linejoin:miter;stroke-opacity:1"
       d="m 75.689415,111.9769 c -1.149253,-1.03749 -1.105891,-3.17221 0.06509,-4.12122 1.170984,-0.94902 3.469064,-0.71183 4.61798,0.32613 1.148917,1.03796 1.148913,2.87616 -0.02172,3.82472 -1.170628,0.94856 -3.512105,1.00786 -4.661358,-0.0296 z"
       id="path363-0" />
  </g>
</svg>
